<svg id="visual" viewBox="0 0 900 600" width="900" height="600" xmlns="http://www.w3.org/2000/svg" xmlns:xlink="http://www.w3.org/1999/xlink" version="1.1"><rect x="0" y="0" width="900" height="600" fill="#001627"></rect><path d="M0 403L30 400C60 397 120 391 180 396C240 401 300 417 360 424C420 431 480 429 540 412.8C600 396.7 660 366.3 720 369.2C780 372 840 408 870 426L900 444L900 601L870 601C840 601 780 601 720 601C660 601 600 601 540 601C480 601 420 601 360 601C300 601 240 601 180 601C120 601 60 601 30 601L0 601Z" fill="#fa7268"></path><path d="M0 466L30 461.7C60 457.3 120 448.7 180 446.7C240 444.7 300 449.3 360 450.8C420 452.3 480 450.7 540 448.7C600 446.7 660 444.3 720 439.2C780 434 840 426 870 422L900 418L900 601L870 601C840 601 780 601 720 601C660 601 600 601 540 601C480 601 420 601 360 601C300 601 240 601 180 601C120 601 60 601 30 601L0 601Z" fill="#f16367"></path><path d="M0 463L30 453.5C60 444 120 425 180 421.2C240 417.3 300 428.7 360 432.8C420 437 480 434 540 440C600 446 660 461 720 466.2C780 471.3 840 466.7 870 464.3L900 462L900 601L870 601C840 601 780 601 720 601C660 601 600 601 540 601C480 601 420 601 360 601C300 601 240 601 180 601C120 601 60 601 30 601L0 601Z" fill="#e85467"></path><path d="M0 483L30 483.3C60 483.7 120 484.3 180 485.3C240 486.3 300 487.7 360 484.8C420 482 480 475 540 477.2C600 479.3 660 490.7 720 496.3C780 502 840 502 870 502L900 502L900 601L870 601C840 601 780 601 720 601C660 601 600 601 540 601C480 601 420 601 360 601C300 601 240 601 180 601C120 601 60 601 30 601L0 601Z" fill="#de4467"></path><path d="M0 503L30 511.2C60 519.3 120 535.7 180 538.3C240 541 300 530 360 519.8C420 509.7 480 500.3 540 496.7C600 493 660 495 720 500.5C780 506 840 515 870 519.5L900 524L900 601L870 601C840 601 780 601 720 601C660 601 600 601 540 601C480 601 420 601 360 601C300 601 240 601 180 601C120 601 60 601 30 601L0 601Z" fill="#d23467"></path><path d="M0 541L30 544.8C60 548.7 120 556.3 180 555.8C240 555.3 300 546.7 360 549.5C420 552.3 480 566.7 540 570.2C600 573.7 660 566.3 720 559.8C780 553.3 840 547.7 870 544.8L900 542L900 601L870 601C840 601 780 601 720 601C660 601 600 601 540 601C480 601 420 601 360 601C300 601 240 601 180 601C120 601 60 601 30 601L0 601Z" fill="#c62368"></path></svg>